<?xml version="1.0" standalone="no"?>
<!DOCTYPE svg PUBLIC "-//W3C//DTD SVG 1.1//EN" "http://www.w3.org/Graphics/SVG/1.1/DTD/svg11.dtd" >
<!--
2013-9-30: Created.
-->
<svg>
<metadata>
Created by iconfont
</metadata>
<defs>

<font id="iconfont" horiz-adv-x="1024" >
  <font-face
    font-family="iconfont"
    font-weight="500"
    font-stretch="normal"
    units-per-em="1024"
    ascent="896"
    descent="-128"
  />
    <missing-glyph />
    
    <glyph glyph-name="zhuanyegoutong" unicode="&#58916;" d="M486.4 198.98181799999998l16.453818-16.453818-16.477091-16.453818-16.453818 16.453818-49.338182-49.361455-16.477091 16.453819-32.907636 32.907636-49.384727-49.361455-16.453818 16.453819L257.186909 197.81818199999998H256V640h418.909091v-232.727273h-23.272727v209.454546H279.272727v-408.110546l42.542546-42.542545 49.384727 49.361454 16.453818-16.453818 32.907637-32.907636 49.361454 49.361454 16.453818-16.453818zM512 896l442.181818-256v-512L512-128 69.818182 128V640L512 896z m0-28.276364L93.090909 625.850182v-483.700364l418.909091-241.873454 418.909091 241.873454V625.850182L512 867.7236359999999zM325.818182 546.909091h186.181818v-23.272727h-186.181818v23.272727z m0-69.818182h256v-23.272727H325.818182v23.272727z m0-69.818182h116.363636v-23.272727h-116.363636v23.272727z m209.454545-46.545454h232.727273v-186.181818h-46.545455v-46.545455l-69.818181 46.545455h-116.363637v186.181818z m23.272728-23.272728v-139.636363h93.090909l46.545454-23.272727v23.272727h46.545455v139.636363h-186.181818z m23.272727-46.545454h23.272727v-23.272727h-23.272727v23.272727z m46.545454 0h23.272728v-23.272727h-23.272728v23.272727z m46.545455 0h23.272727v-23.272727h-23.272727v23.272727z"  horiz-adv-x="1024" />

    
    <glyph glyph-name="shenpiwancheng" unicode="&#58917;" d="M642.816 231.889455l49.384727 49.384727 16.453818-16.453818-65.838545-65.838546-16.453818 16.453818-32.907637 32.930909 16.453819 16.453819 32.907636-32.930909zM486.4 198.98181799999998l16.477091-16.453818-16.477091-16.453818-16.453818 16.453818-49.338182-49.361455-16.477091 16.453819-32.907636 32.907636-49.384728-49.361455-16.453818 16.453819L257.186909 197.81818199999998H256V640h418.909091v-232.727273h-23.272727v209.454546H279.272727v-408.110546l42.542546-42.542545 49.384727 49.361454 16.453818-16.453818 32.907637-32.907636 49.361454 49.361454 16.453818-16.453818zM512 896l442.181818-256v-512L512-128 69.818182 128V640L512 896z m0-28.276364L93.090909 625.850182v-483.700364l418.909091-241.873454 418.909091 241.873454V625.850182L512 867.7236359999999zM651.636364 128a116.363636 116.363636 0 1 0 0 232.727273 116.363636 116.363636 0 0 0 0-232.727273z m0 23.272727a93.090909 93.090909 0 1 1 0 186.181818 93.090909 93.090909 0 0 1 0-186.181818zM325.818182 546.909091h186.181818v-23.272727h-186.181818v23.272727z m0-69.818182h256v-23.272727H325.818182v23.272727z m0-69.818182h116.363636v-23.272727h-116.363636v23.272727z"  horiz-adv-x="1024" />

    
    <glyph glyph-name="zizhishenpi" unicode="&#58918;" d="M721.826909 190.62690899999996l42.170182-42.170182-16.453818-16.453818-42.170182 42.170182a104.727273 104.727273 0 1 0 16.453818 16.453818z m-235.450182 8.378182l16.477091-16.477091-16.477091-16.453818-16.453818 16.453818-49.338182-49.361455-16.477091 16.453819-32.907636 32.907636-49.384727-49.361455-16.453818 16.453819L257.186909 197.81818199999998H256V640h418.909091v-232.727273h-23.272727v209.454546H279.272727v-408.110546l42.542546-42.542545 49.384727 49.361454 16.453818-16.453818 32.907637-32.907636 49.361454 49.361454 16.453818-16.453818zM512 896l442.181818-256v-512L512-128 69.818182 128V640L512 896z m0-28.276364L93.090909 625.850182v-483.700364l418.909091-241.873454 418.909091 241.873454V625.850182L512 867.7236359999999zM640 174.54545499999995a81.454545 81.454545 0 1 1 0 162.90909 81.454545 81.454545 0 0 1 0-162.90909zM325.818182 546.909091h186.181818v-23.272727h-186.181818v23.272727z m0-69.818182h256v-23.272727H325.818182v23.272727z m0-69.818182h116.363636v-23.272727h-116.363636v23.272727z"  horiz-adv-x="1024" />

    
    <glyph glyph-name="shenqinghezuo" unicode="&#58919;" d="M486.4 198.98181799999998l16.453818-16.453818-16.477091-16.453818-16.453818 16.453818-49.338182-49.361455-16.477091 16.453819-32.907636 32.907636-49.384727-49.361455-16.453818 16.453819L257.186909 197.81818199999998H256V640h418.909091v-232.727273h-23.272727v209.454546H279.272727v-408.110546l42.542546-42.542545 49.384727 49.361454 16.453818-16.453818 32.907637-32.907636 49.361454 49.361454 16.453818-16.453818z m135.144727-54.528L605.090909 128h-69.818182v69.818182l16.453818 16.453818 130.001455 130.001455L698.181818 360.72727299999997l69.818182-69.818182-16.453818-16.453818-130.001455-130.001455zM605.090909 160.90763600000002l99.909818 99.909819-36.910545 36.910545L568.180364 197.81818199999998 605.090909 160.90763600000002z m116.363636 116.363637l13.637819 13.637818L698.181818 327.81963599999995l-13.637818-13.637818L721.454545 277.27127299999995zM581.818182 151.27272700000003l-23.272727 23.272728v-23.272728h23.272727zM512 896l442.181818-256v-512L512-128 69.818182 128V640L512 896z m0-28.276364L93.090909 625.850182v-483.700364l418.909091-241.873454 418.909091 241.873454V625.850182L512 867.7236359999999zM325.818182 546.909091h186.181818v-23.272727h-186.181818v23.272727z m0-69.818182h256v-23.272727H325.818182v23.272727z m0-69.818182h116.363636v-23.272727h-116.363636v23.272727z"  horiz-adv-x="1024" />

    
    <glyph glyph-name="dingzhifangan" unicode="&#58920;" d="M588.637091 427.729455l16.453818-16.453819-65.815273-65.838545-16.477091 16.453818 49.384728 49.384727-49.384728 49.338182 16.477091 16.477091 49.338182-49.361454z m-229.911273-16.453819l49.384727-49.384727-16.47709-16.453818L325.818182 411.275636l16.453818 16.453819L391.633455 477.090909l16.47709-16.453818-49.384727-49.361455zM486.4 198.98181799999998l16.477091-16.453818-16.477091-16.453818-16.453818 16.453818-49.338182-49.361455-16.477091 16.453819-32.907636 32.907636-49.384728-49.361455-16.453818 16.453819L257.186909 197.81818199999998H256V640h418.909091v-232.727273h-23.272727v116.363637H279.272727v-315.019637l42.542546-42.542545 49.384727 49.361454 16.453818-16.453818 32.907637-32.907636 49.361454 49.361454 16.453818-16.453818zM279.272727 546.909091h372.363637v69.818182H279.272727v-69.818182zM512 896l442.181818-256v-512L512-128 69.818182 128V640L512 896z m0-28.276364L93.090909 625.850182v-483.700364l418.909091-241.873454 418.909091 241.873454V625.850182L512 867.7236359999999zM325.818182 593.454545h23.272727v-23.272727h-23.272727v23.272727z m46.545454 0h23.272728v-23.272727h-23.272728v23.272727z m46.545455 0h23.272727v-23.272727h-23.272727v23.272727z m60.997818-147.269818l16.453818-16.477091-49.338182-49.338181-16.47709 16.430545 49.361454 49.384727z m286.021818-163.188363l2.071273-5.050182-20.782545-25.134546a14.708364 14.708364 0 0 1 0-18.152727l19.735272-23.133091-2.071272-5.026909a107.496727 107.496727 0 0 0-19.735273-35.234909l-4.165818-5.026909-31.162182 5.026909c-6.237091 1.024-13.498182-3.025455-15.592727-9.053091l-10.379637-30.184727-5.189818-1.000727a113.245091 113.245091 0 0 0-51.944727 0l-6.237091 1.000727-10.402909 30.184727c-2.071273 6.050909-9.355636 10.077091-15.592728 9.076364l-32.186181-5.050182-4.165819 4.026182c-4.142545 5.026909-8.308364 10.077091-11.403636 16.104727a71.540364 71.540364 0 0 0-9.378909 20.130909L535.272727 211.52581799999996l20.782546 24.157091a14.731636 14.731636 0 0 1 0 18.106182L535.272727 277.946182l2.094546 5.026909c5.189818 13.102545 11.403636 25.181091 20.759272 36.235636l4.165819 4.026182 31.162181-5.026909c6.237091-1.000727 13.498182 3.025455 15.592728 9.076364l11.403636 30.184727 5.213091 1.000727a144.244364 144.244364 0 0 0 50.920727 0l6.213818-1.000727 10.40291-29.207273c2.071273-6.027636 9.355636-10.053818 15.592727-10.053818l32.186182 4.026182 4.165818-4.026182c4.165818-5.026909 8.308364-10.053818 11.426909-16.104727 4.142545-6.050909 7.284364-12.078545 9.355636-19.106909z m-27.508363 6.958545l-6.306909 8.610909-20.014546-1.908363c-16.802909-1.908364-33.629091 7.68-38.888727 22.085818l-6.330182 17.268363a87.179636 87.179636 0 0 1-31.557818 0l-7.354182-18.222545c-5.259636-14.405818-23.133091-23.994182-38.912-21.131636l-18.944 2.885818c-5.259636-5.748364-8.401455-12.474182-11.566545-19.2l13.684363-14.382546c10.519273-11.52 10.519273-29.765818 0-42.24l-13.684363-14.382545c2.094545-3.84 3.165091-7.68 6.306909-11.52 2.094545-2.885818 3.165091-5.748364 5.259636-7.68l21.038545 2.885818c16.826182 1.908364 33.652364-7.68 38.912-22.085818l6.330182-18.222546a87.272727 87.272727 0 0 1 31.557818 0l7.354182 19.2c5.259636 14.382545 23.133091 23.970909 38.912 21.108364l18.944-2.885818c4.189091 5.771636 8.401455 12.474182 11.566546 19.2l-12.613818 13.428363a32.186182 32.186182 0 0 0-1.070546 41.262546l13.684364 15.36a102.167273 102.167273 0 0 0-6.306909 10.565818zM651.636364 197.81818199999998a46.545455 46.545455 0 1 0 0 93.090909 46.545455 46.545455 0 0 0 0-93.090909z m0 23.272727a23.272727 23.272727 0 1 1 0 46.545455 23.272727 23.272727 0 0 1 0-46.545455z"  horiz-adv-x="1024" />

    
    <glyph glyph-name="jixiaojiangjin" unicode="&#58921;" d="M512 896l442.181818-256v-512L512-128 69.818182 128V640L512 896z m0-28.276364L93.090909 625.850182v-483.700364l418.909091-241.873454 418.909091 241.873454V625.850182L512 867.7236359999999zM256 197.81818199999998h512v-23.272727H256v23.272727z m0 162.909091h93.090909v-139.636364H256v139.636364z m418.909091 209.454545h93.090909v-349.090909h-93.090909V570.181818z m-279.272727-93.090909h93.090909v-256h-93.090909V477.090909z m139.636363-69.818182h93.090909v-186.181818h-93.090909v186.181818zM279.272727 337.45454500000005v-93.090909h46.545455v93.090909H279.272727z m418.909091 209.454546v-302.545455h46.545455V546.909091h-46.545455z m-279.272727-93.090909v-209.454546h46.545454v209.454546h-46.545454z m139.636364-69.818182v-139.636364h46.545454v139.636364h-46.545454z"  horiz-adv-x="1024" />

    
    <glyph glyph-name="wuxianyijin" unicode="&#58922;" d="M640 262.81890899999996v-6.818909H674.909091v-23.272727h-34.909091v-46.545455h-23.272727v46.545455H581.818182v23.272727h34.909091v23.272727H581.818182v23.272728h18.455273L570.181818 332.63709100000005l16.453818 16.453818L628.363636 307.36290899999995l41.728 41.728 16.453819-16.453818-30.091637-30.091636H674.909091v-23.272728h-34.909091v-16.453818zM465.454545 453.818182v46.545454h23.272728v-46.545454h46.545454v-23.272727h-46.545454v-46.545455h-23.272728v46.545455h-46.545454v23.272727h46.545454z m232.727273-23.272727h-23.272727v93.090909c-52.596364 9.681455-84.782545 40.494545-93.090909 93.090909h-46.545455v23.272727h69.818182c0-58.112 34.978909-93.090909 93.090909-93.090909v-116.363636z m-209.454545-289.861819c-14.359273-8.215273-23.272727-12.683636-23.272728-12.683636s-209.454545 116.247273-209.454545 256v162.909091c58.112 0 93.090909 34.978909 93.090909 93.090909h209.454546v-23.272727h-186.181819c-9.681455-52.596364-40.494545-84.782545-93.090909-93.090909v-139.636364c0-93.090909 116.363636-186.181818 186.181818-228.072727 7.098182 4.258909 14.941091 9.076364 23.272728 14.336v-29.579637zM512 896l442.181818-256v-512L512-128 69.818182 128V640L512 896z m0-28.276364L93.090909 625.850182v-483.700364l418.909091-241.873454 418.909091 241.873454V625.850182L512 867.7236359999999zM628.363636 128a139.636364 139.636364 0 1 0 0 279.272727 139.636364 139.636364 0 0 0 0-279.272727z m0 23.272727a116.363636 116.363636 0 1 1 0 232.727273 116.363636 116.363636 0 0 1 0-232.727273z"  horiz-adv-x="1024" />

    
    <glyph glyph-name="niandishuangxin" unicode="&#58923;" d="M488.727273 344.273455V337.45454500000005h34.909091v-23.272727H488.727273v-46.545454h-23.272728v46.545454h-34.90909v23.272727H465.454545v23.272728h-34.90909v23.272727h18.455272L418.909091 414.091636l16.453818 16.453819 41.728-41.728L518.818909 430.545455l16.453818-16.453819L505.181091 384h18.455273v-23.272727H488.727273v-16.453818zM744.727273 546.909091H349.090909v-23.272727h-23.272727v46.545454h442.181818v-302.545454h-46.545455v23.272727h23.272728V546.909091zM512 896l442.181818-256v-512L512-128 69.818182 128V640L512 896z m0-28.276364L93.090909 625.850182v-483.700364l418.909091-241.873454 418.909091 241.873454V625.850182L512 867.7236359999999zM256 500.363636h442.181818v-302.545454H256V500.363636z m23.272727-23.272727v-256h395.636364V477.090909H279.272727z m279.272728-116.363636h69.818181v-23.272728h-69.818181v23.272728z m-232.727273 0h69.818182v-23.272728h-69.818182v23.272728z m0 46.545454h46.545454v-23.272727h-46.545454v23.272727z m0-93.090909h46.545454v-23.272727h-46.545454v23.272727z m256 93.090909h46.545454v-23.272727h-46.545454v23.272727z m0-93.090909h46.545454v-23.272727h-46.545454v23.272727z"  horiz-adv-x="1024" />

    
    <glyph glyph-name="daixinnianjia" unicode="&#58924;" d="M605.090909 360.72727299999997v46.545454h-69.818182v23.272728h93.090909v-162.909091h-93.090909v23.272727h69.818182v46.545454h-69.818182v23.272728h69.818182z m-186.181818-69.818182h69.818182v-23.272727h-93.090909v93.090909h69.818181v46.545454h-69.818181v23.272728h93.090909v-93.09091h-69.818182v-46.545454z m302.545454 209.454545v69.818182H302.545455v-69.818182h418.90909z m0-23.272727H302.545455v-279.272727h418.90909V477.090909zM512 896l442.181818-256v-512L512-128 69.818182 128V640L512 896z m0-28.276364L93.090909 625.850182v-483.700364l418.909091-241.873454 418.909091 241.873454V625.850182L512 867.7236359999999zM279.272727 593.454545h465.454546v-418.90909H279.272727V593.454545z m139.636364-46.545454h23.272727v-23.272727h-23.272727v23.272727z m162.909091 0h23.272727v-23.272727h-23.272727v23.272727z"  horiz-adv-x="1024" />

    
    <glyph glyph-name="tuanjianhuodong" unicode="&#58925;" d="M721.454545 500.363636h-116.363636v23.272728h139.636364v-256H442.181818v69.818181h-139.636363v-209.454545H279.272727V640h23.272728v-46.545455h279.272727v-256l-93.090909-46.545454h232.727272v209.454545z m-162.90909 69.818182H302.545455v-209.454545h256v209.454545z m-93.09091-232.727273v-34.90909l69.818182 34.90909h-69.818182z m46.545455 558.545455l442.181818-256v-512L512-128 69.818182 128V640L512 896z m0-28.276364L93.090909 625.850182v-483.700364l418.909091-241.873454 418.909091 241.873454V625.850182L512 867.723636z"  horiz-adv-x="1024" />

    
    <glyph glyph-name="jieriliwu" unicode="&#58926;" d="M523.636364 500.363636v-93.090909H721.454545v93.090909h-197.818181z m-23.272728 0H302.545455v-93.090909h197.818181v93.090909z m0-116.363636H349.090909v-209.454545h325.818182v209.454545h-174.545455z m-22.923636 139.636364l-60.183273 60.183272-32.907636-32.907636L411.601455 523.636364h65.838545z m32.907636 0h3.304728l93.090909 93.090909 16.453818-16.453818 32.907636-32.907637 16.453818-16.453818L645.306182 523.636364H744.727273v-139.636364h-46.545455v-232.727273H325.818182V384H279.272727v139.636364h99.421091l-10.798545 10.798545-16.453818 16.477091L417.256727 616.727273l16.453818-16.453818L510.347636 523.636364z m96.395637 60.183272L546.56 523.636364h65.838545l27.252364 27.275636-32.907636 32.907636zM512 896l442.181818-256v-512L512-128 69.818182 128V640L512 896z m0-28.276364L93.090909 625.850182v-483.700364l418.909091-241.873454 418.909091 241.873454V625.850182L512 867.7236359999999z"  horiz-adv-x="1024" />

    
    <glyph glyph-name="gupiaoqiquan" unicode="&#58927;" d="M488.727273 343.43563600000004a128 128 0 1 0 162.909091 0V128l-81.454546 69.818182-81.454545-69.818182v215.435636z m139.636363-15.290181c-17.454545-8.936727-37.236364-13.963636-58.181818-13.963637-20.945455 0-40.727273 5.026909-58.181818 13.963637v-147.61891l58.181818 47.546182 58.181818-47.546182V328.14545499999997zM744.727273 616.727273H279.272727v-349.090909h162.909091v-23.272728H256V640h512v-395.636364h-69.818182v23.272728h46.545455V616.727273zM512 896l442.181818-256v-512L512-128 69.818182 128V640L512 896z m0-28.276364L93.090909 625.850182v-483.700364l418.909091-241.873454 418.909091 241.873454V625.850182L512 867.7236359999999zM325.818182 570.181818h116.363636v-23.272727h-116.363636v23.272727z m0-69.818182h69.818182v-23.272727h-69.818182v23.272727z m0-69.818181h46.545454v-23.272728h-46.545454v23.272728z m244.363636-93.09091a104.727273 104.727273 0 1 1 0 209.454546 104.727273 104.727273 0 0 1 0-209.454546z m0 46.545455a58.181818 58.181818 0 1 0 0 116.363636 58.181818 58.181818 0 0 0 0-116.363636z m0 23.272727a34.909091 34.909091 0 1 1 0 69.818182 34.909091 34.909091 0 0 1 0-69.818182z"  horiz-adv-x="1024" />

    
    <glyph glyph-name="bianpingguanli" unicode="&#58928;" d="M604.951273 575.418182a232.797091 232.797091 0 0 0 144.756363-230.237091c-6.981818 4.654545-14.661818 8.378182-22.830545 11.031273v3.258181c0 85.201455-50.827636 158.487273-123.810909 191.232a93.463273 93.463273 0 0 1 1.861818 24.715637zM418.909091 570.600727a95.301818 95.301818 0 0 1 3.165091-24.576 209.454545 209.454545 0 0 1-114.082909-186.996363 92.392727 92.392727 0 0 1-23.133091-7.773091A232.750545 232.750545 0 0 0 418.909091 570.600727z m246.853818-390.260363a231.796364 231.796364 0 0 0-148.317091-53.364364 231.819636 231.819636 0 0 0-151.947636 56.436364c7.377455 3.490909 14.196364 7.889455 20.386909 13.102545a208.570182 208.570182 0 0 1 131.560727-46.475636 208.523636 208.523636 0 0 1 126.114909 42.216727c6.749091-4.910545 14.219636-8.936727 22.202182-11.915636zM512 896l442.181818-256v-512L512-128 69.818182 128V640L512 896z m0-28.276364L93.090909 625.850182v-483.700364l418.909091-241.873454 418.909091 241.873454V625.850182L512 867.7236359999999zM512 500.363636a69.818182 69.818182 0 1 0 0 139.636364 69.818182 69.818182 0 0 0 0-139.636364z m0 23.272728a46.545455 46.545455 0 1 1 0 93.090909 46.545455 46.545455 0 0 1 0-93.090909z m-186.181818-325.818182a69.818182 69.818182 0 1 0 0 139.636363 69.818182 69.818182 0 0 0 0-139.636363z m0 23.272727a46.545455 46.545455 0 1 1 0 93.090909 46.545455 46.545455 0 0 1 0-93.090909z m372.363636-23.272727a69.818182 69.818182 0 1 0 0 139.636363 69.818182 69.818182 0 0 0 0-139.636363z m0 23.272727a46.545455 46.545455 0 1 1 0 93.090909 46.545455 46.545455 0 0 1 0-93.090909z"  horiz-adv-x="1024" />

    
    <glyph glyph-name="shujuguanli" unicode="&#58935;" d="M745.355636 290.909091H768v-162.909091H512v162.909091h25.181091a104.727273 104.727273 0 0 0 208.174545 0z m-23.458909 0a81.454545 81.454545 0 0 1-161.256727 0h161.28zM651.636364 477.090909v139.636364H279.272727v-139.636364h372.363637z m0-23.272727H279.272727v-139.636364h186.181818v-23.272727H279.272727v-139.636364h186.181818v-23.272727H256V640h418.909091v-209.454545h-23.272727v23.272727zM512 896l442.181818-256v-512L512-128 69.818182 128V640L512 896z m0-28.276364L93.090909 625.850182v-483.700364l418.909091-241.873454 418.909091 241.873454V625.850182L512 867.7236359999999zM302.545455 570.181818h46.545454v-23.272727h-46.545454v23.272727z m69.818181 0h46.545455v-23.272727h-46.545455v23.272727z m-69.818181-162.909091h46.545454v-23.272727h-46.545454v23.272727z m69.818181 0h46.545455v-23.272727h-46.545455v23.272727z m-69.818181-162.909091h46.545454v-23.272727h-46.545454v23.272727z m69.818181 0h46.545455v-23.272727h-46.545455v23.272727z m162.909091 23.272728v-116.363637h209.454546v116.363637h-209.454546z m69.818182-46.545455h69.818182v-23.272727h-69.818182v23.272727z"  horiz-adv-x="1024" />

    
    <glyph glyph-name="bangongdizhi" unicode="&#58936;" d="M535.272727 267.636364v-139.636364H279.272727V477.090909h139.636364v162.909091h325.818182v-512h-116.363637v139.636364h-93.090909z m0 23.272727h116.363637v-139.636364h69.818181V616.727273H442.181818v-465.454546h69.818182v139.636364h23.272727z m-116.363636-139.636364V453.818182h-116.363636v-302.545455h116.363636z m93.090909 744.727273l442.181818-256v-512L512-128 69.818182 128V640L512 896z m0-28.276364L93.090909 625.850182v-483.700364l418.909091-241.873454 418.909091 241.873454V625.850182L512 867.723636zM325.818182 407.272727h69.818182v-69.818182h-69.818182v69.818182z m0-116.363636h69.818182v-69.818182h-69.818182v69.818182z m162.909091 256h69.818182v-69.818182h-69.818182v69.818182z m0-116.363636h69.818182v-69.818182h-69.818182v69.818182z m116.363636 116.363636h69.818182v-69.818182h-69.818182v69.818182z m0-116.363636h69.818182v-69.818182h-69.818182v69.818182z m-256-46.545455v-23.272727h23.272727v23.272727h-23.272727z m0-116.363636v-23.272728h23.272727v23.272728h-23.272727z m162.909091 256v-23.272728h23.272727v23.272728h-23.272727z m0-116.363637v-23.272727h23.272727v23.272727h-23.272727z m116.363636 116.363637v-23.272728h23.272728v23.272728h-23.272728z m0-116.363637v-23.272727h23.272728v23.272727h-23.272728z"  horiz-adv-x="1024" />

    
    <glyph glyph-name="neirongxitong" unicode="&#58937;" d="M721.454545 174.545455V453.818182h-46.545454v23.272727h69.818182v-325.818182h-69.818182v23.272728h46.545454zM418.909091 407.272727h-46.545455v-46.545454h46.545455v46.545454z m23.272727 0v-69.818182h-93.090909v93.09091h93.090909v-23.272728z m116.363637 116.363637h-186.181819v-46.545455h186.181819v46.545455z m23.272727 0v-69.818182H349.090909v93.090909h232.727273v-23.272727zM302.545455 174.545455h325.818181V593.454545H302.545455v-418.90909z m-23.272728 0V616.727273h372.363637v-465.454546H279.272727v23.272728zM512 896l442.181818-256v-512L512-128 69.818182 128V640L512 896z m0-28.276364L93.090909 625.850182v-483.700364l418.909091-241.873454 418.909091 241.873454V625.850182L512 867.723636zM465.454545 430.545455h116.363637v-23.272728h-116.363637v23.272728z m0-69.818182h116.363637v-23.272728h-116.363637v23.272728z m-116.363636-46.545455h232.727273v-23.272727H349.090909v23.272727z m0-69.818182h232.727273v-23.272727H349.090909v23.272727z"  horiz-adv-x="1024" />

    
    <glyph glyph-name="lianxichuanzhen" unicode="&#58938;" d="M674.909091 430.545455v-23.272728H349.090909v69.818182H279.272727v-232.727273h23.272728v-23.272727H256V500.363636h93.090909v139.636364h325.818182v-139.636364h93.090909v-279.272727h-46.545455v23.272727h23.272728V477.090909h-69.818182v-46.545454z m-23.272727 0v186.181818H372.363636v-186.181818h279.272728z m23.272727-162.909091v-139.636364H349.090909v139.636364h-46.545454v23.272727h418.90909v-23.272727h-46.545454z m-302.545455 0v-116.363637h279.272728v116.363637H372.363636z m139.636364 628.363636l442.181818-256v-512L512-128 69.818182 128V640L512 896z m0-28.276364L93.090909 625.850182v-483.700364l418.909091-241.873454 418.909091 241.873454V625.850182L512 867.7236359999999zM628.363636 360.72727299999997h46.545455v-23.272728h-46.545455v23.272728z m-69.818181 0h46.545454v-23.272728h-46.545454v23.272728z m-139.636364 209.454545h186.181818v-23.272727h-186.181818v23.272727z m0-69.818182h116.363636v-23.272727h-116.363636v23.272727z"  horiz-adv-x="1024" />

    
    <glyph glyph-name="jiazhixitong" unicode="&#58940;" d="M397.963636 477.090909l-38.423272 109.800727L286.254545 477.090909h111.709091z m-93.509818-23.272727l183.970909-235.147637L406.109091 453.818182h-101.655273z m415.092364 0H617.890909l-82.315636-235.147637L719.546182 453.818182z m18.199273 23.272727l-73.285819 109.800727L626.036364 477.090909h111.709091z m-305.128728-23.272727L512 225.745455l79.383273 228.072727H432.64zM581.818182 477.090909l-69.818182 93.090909-69.818182-93.090909h139.636364z m-86.434909 116.363636H384l36.491636-104.843636L495.383273 593.454545z m33.233454 0l74.891637-104.843636L640 593.454545h-111.383273zM512 896l442.181818-256v-512L512-128 69.818182 128V640L512 896z m0-28.276364L93.090909 625.850182v-483.700364l418.909091-241.873454 418.909091 241.873454V625.850182L512 867.723636zM512 151.272727L256 477.090909l93.090909 139.636364h325.818182l93.090909-139.636364-256-325.818182z"  horiz-adv-x="1024" />

    
    <glyph glyph-name="shujuxitong" unicode="&#58941;" d="M605.090909 290.909091h-23.272727V523.636364h93.090909v-232.727273h-69.818182z m0 23.272727h46.545455v186.181818h-46.545455v-186.181818z m-116.363636-23.272727h-23.272728v162.909091h93.09091v-162.909091h-69.818182z m0 23.272727h46.545454v116.363637h-46.545454v-116.363637z m-116.363637-23.272727h-23.272727v93.090909h93.090909v-93.090909h-69.818182z m0 23.272727h46.545455v46.545455h-46.545455v-46.545455z m372.363637 256H279.272727v-325.818182h465.454546V570.181818z m23.272727 0v-349.090909H256V593.454545h512v-23.272727zM512 896l442.181818-256v-512L512-128 69.818182 128V640L512 896z m0-28.276364L93.090909 625.850182v-483.700364l418.909091-241.873454 418.909091 241.873454V625.850182L512 867.723636zM349.090909 197.818182h325.818182v-23.272727H349.090909v23.272727z"  horiz-adv-x="1024" />

    
    <glyph glyph-name="xinxichuanbo" unicode="&#58942;" d="M523.636364 341.341091L651.636364 128H372.363636l128 213.341091V407.272727h23.272728v-65.931636zM551.889455 244.36363600000004L512 314.181818l-39.889455-69.818182h79.77891z m13.312-23.272727h-106.40291L418.909091 151.27272700000003h186.181818l-39.889454 69.818182z m-199.493819 5.166546A232.261818 232.261818 0 0 0 279.272727 407.272727c0 128.535273 104.192 232.727273 232.727273 232.727273s232.727273-104.192 232.727273-232.727273a232.261818 232.261818 0 0 0-86.434909-181.015272l-12.683637 19.712a209.454545 209.454545 0 1 1-267.240727 0l-12.660364-19.712z m38.074182 59.22909a162.909091 162.909091 0 1 0 216.436364 0l-12.776727 19.851637a139.636364 139.636364 0 1 1-190.88291 0l-12.776727-19.851637z m38.586182 59.997091a93.090909 93.090909 0 1 0 139.264 0l-13.242182 20.619637a69.818182 69.818182 0 1 1-112.779636 0l-13.265455-20.619637zM512 896l442.181818-256v-512L512-128 69.818182 128V640L512 896z m0-28.276364L93.090909 625.850182v-483.700364l418.909091-241.873454 418.909091 241.873454V625.850182L512 867.7236359999999z"  horiz-adv-x="1024" />

    
    <glyph glyph-name="hebingxingzhuang" unicode="&#58939;" d="M521.984 337.45454500000005H478.72l-6.632727-23.272727H488.727273v-23.272727h-69.818182v23.272727h29.928727L488.727273 453.818182h23.272727l39.889455-139.636364H581.818182v-23.272727h-69.818182v23.272727h16.616727l-6.632727 23.272727z m-6.656 23.272728l-14.964364 52.363636-14.964363-52.363636h29.928727zM651.636364 430.545455v-116.363637h23.272727v-23.272727h-69.818182v23.272727h23.272727v116.363637h-23.272727v23.272727h69.818182v-23.272727h-23.272727z m93.090909 93.090909h-93.090909v93.090909H372.363636v-465.454546h372.363637V523.636364z m23.272727 0v-395.636364H349.090909V640h325.818182l93.090909-93.090909v-23.272727zM279.272727 221.090909H256V546.909091h69.818182v-23.272727H279.272727v-279.272728h46.545455v-23.272727H279.272727zM512 896l442.181818-256v-512L512-128 69.818182 128V640L512 896z m0-28.276364L93.090909 625.850182v-483.700364l418.909091-241.873454 418.909091 241.873454V625.850182L512 867.7236359999999zM674.909091 609.745455V546.909091h62.836364L674.909091 609.745455z"  horiz-adv-x="1024" />

    
    <glyph glyph-name="zhinengjiqi" unicode="&#58944;" d="M325.818182 314.181818v69.818182a186.205091 186.205091 0 0 0 162.909091 184.738909V616.727273h23.272727v23.272727h23.272727v-46.545455h-23.272727v-23.272727a186.181818 186.181818 0 0 0 186.181818-186.181818v-69.818182h23.272727v-69.818182h-23.272727v-69.818181H325.818182v69.818181h-23.272727v69.818182h23.272727z m23.272727 0v-116.363636h325.818182v186.181818a162.909091 162.909091 0 0 1-325.818182 0v-69.818182z m162.909091 581.818182l442.181818-256v-512L512-128 69.818182 128V640L512 896z m0-28.276364L93.090909 625.850182v-483.700364l418.909091-241.873454 418.909091 241.873454V625.850182L512 867.7236359999999zM418.909091 151.27272700000003h186.181818v-23.272727h-186.181818v23.272727z m23.272727 256a23.272727 23.272727 0 1 0 0-46.545454 23.272727 23.272727 0 0 0 0 46.545454z m139.636364 0a23.272727 23.272727 0 1 0 0-46.545454 23.272727 23.272727 0 0 0 0 46.545454z"  horiz-adv-x="1024" />

    
    <glyph glyph-name="xiaochengxuguanli" unicode="&#58945;" d="M535.272727 430.545455v-93.09091a69.818182 69.818182 0 1 0-69.818182 69.818182v-23.272727a46.545455 46.545455 0 1 1 46.545455-46.545455v93.09091a69.818182 69.818182 0 1 0 69.818182-69.818182v23.272727a46.545455 46.545455 0 1 1-46.545455 46.545455z m23.272728 162.90909h46.545454v46.545455h23.272727v-46.545455h93.090909v-93.090909h46.545455v-23.272727h-46.545455v-46.545454h46.545455v-23.272728h-46.545455v-46.545454h46.545455v-23.272728h-46.545455v-46.545454h46.545455v-23.272727h-46.545455v-93.090909h-93.090909v-46.545455h-23.272727v46.545455h-46.545454v-46.545455h-23.272728v46.545455h-46.545454v-46.545455h-23.272728v46.545455h-46.545454v-46.545455h-23.272727v46.545455h-93.090909v93.090909H256v23.272727h46.545455v46.545454H256v23.272728h46.545455v46.545454H256v23.272728h46.545455v46.545454H256v23.272727h46.545455v93.090909h93.090909v46.545455h23.272727v-46.545455h46.545454v46.545455h23.272728v-46.545455h46.545454v46.545455h23.272728v-46.545455zM512 896l442.181818-256v-512L512-128 69.818182 128V640L512 896z m0-28.276364L93.090909 625.850182v-483.700364l418.909091-241.873454 418.909091 241.873454V625.850182L512 867.7236359999999zM325.818182 570.181818v-372.363636h372.363636V570.181818H325.818182z"  horiz-adv-x="1024" />

    
    <glyph glyph-name="jiazhisuqiu" unicode="&#58946;" d="M598.272 330.635636L581.818182 314.181818h-69.818182v69.818182l16.453818 16.453818 130.001455 130.001455L674.909091 546.909091l69.818182-69.818182-16.453818-16.453818-130.001455-130.001455zM581.818182 347.08945500000004l99.909818 99.909818-36.910545 36.910545L544.907636 384 581.818182 347.08945500000004z m116.363636 116.363636l13.637818 13.637818L674.909091 514.0014550000001l-13.637818-13.637819L698.181818 463.453091zM558.545455 337.45454500000005l-23.272728 23.272728v-23.272728h23.272728z m-162.909091-162.90909h256v139.636363h23.272727v-162.909091H376.250182L279.272727 248.250182V616.727273h395.636364v-46.545455h-23.272727v23.272727H302.545455v-325.818181h93.090909v-93.090909z m116.363636 721.454545l442.181818-256v-512L512-128 69.818182 128V640L512 896z m0-28.276364L93.090909 625.850182v-483.700364l418.909091-241.873454 418.909091 241.873454V625.850182L512 867.7236359999999zM349.090909 546.909091h116.363636v-23.272727h-116.363636v23.272727z m0-69.818182h69.818182v-23.272727h-69.818182v23.272727z m0-69.818182h46.545455v-23.272727h-46.545455v23.272727z m23.272727-162.909091h-58.181818l58.181818-58.181818V244.36363600000004z"  horiz-adv-x="1024" />

    
    <glyph glyph-name="neirongguanli" unicode="&#58947;" d="M395.636364 174.54545499999995h302.545454V546.909091h-23.272727v23.272727h46.545454v-418.909091H372.363636v46.545455h23.272728v-23.272727z m116.363636 721.454545l442.181818-256v-512L512-128 69.818182 128V640L512 896z m0-28.276364L93.090909 625.850182v-483.700364l418.909091-241.873454 418.909091 241.873454V625.850182L512 867.7236359999999zM302.545455 616.727273h349.090909v-395.636364H302.545455V616.727273z m23.272727-23.272728v-349.090909h302.545454V593.454545H325.818182z m23.272727-46.545454h256v-69.818182H349.090909v69.818182z m23.272727-23.272727v-23.272728h209.454546v23.272728h-209.454546z m-23.272727-93.090909h116.363636v-116.363637h-116.363636v116.363637z m23.272727-23.272728v-69.818182h69.818182v69.818182h-69.818182z m116.363637 23.272728h116.363636v-23.272728h-116.363636v23.272728z m0-46.545455h116.363636v-23.272727h-116.363636v23.272727z m0-46.545455h69.818182v-23.272727h-69.818182v23.272727z"  horiz-adv-x="1024" />

    
    <glyph glyph-name="feidouguanli" unicode="&#58948;" d="M504.343273 291.211636L488.727273 244.36363600000004h-23.272728l23.272728 69.818182v3.956364a69.818182 69.818182 0 1 1-28.765091 19.316363h-28.602182a93.090909 93.090909 0 1 0 72.983273-46.242909z m-129.326546 218.88l12.846546-20.573091A162.257455 162.257455 0 0 1 349.090909 384c0-40.261818 14.592-77.079273 38.772364-105.518545l-12.846546-20.573091A185.506909 185.506909 0 0 0 325.818182 384c0 48.64 18.641455 92.928 49.198545 126.091636z m273.966546 0A185.506909 185.506909 0 0 0 698.181818 384c0-48.64-18.641455-92.928-49.198545-126.091636l-12.846546 20.573091A162.257455 162.257455 0 0 1 674.909091 384c0 40.261818-14.592 77.079273-38.772364 105.518545l12.846546 20.573091z m-324.514909 80.849455l12.567272-20.061091A255.301818 255.301818 0 0 1 256 384a255.301818 255.301818 0 0 1 81.035636-186.88l-12.567272-20.061091A278.574545 278.574545 0 0 0 232.727273 384a278.574545 278.574545 0 0 0 91.741091 206.941091z m375.063272 0A278.574545 278.574545 0 0 0 791.272727 384a278.574545 278.574545 0 0 0-91.741091-206.941091l-12.567272 20.061091A255.301818 255.301818 0 0 1 768 384a255.301818 255.301818 0 0 1-81.035636 186.88l12.567272 20.061091zM512 896l442.181818-256v-512L512-128 69.818182 128V640L512 896z m0-28.276364L93.090909 625.850182v-483.700364l418.909091-241.873454 418.909091 241.873454V625.850182L512 867.7236359999999z"  horiz-adv-x="1024" />

    
    <glyph glyph-name="erweima" unicode="&#58949;" d="M512 896l442.181818-256v-512L512-128 69.818182 128V640L512 896z m0-28.276364L93.090909 625.850182v-483.700364l418.909091-241.873454 418.909091 241.873454V625.850182L512 867.7236359999999zM279.272727 616.727273h209.454546v-209.454546H279.272727v209.454546z m23.272728-23.272728v-162.90909h162.90909v162.90909h-162.90909z m46.545454-46.545454h69.818182v-69.818182h-69.818182v69.818182z m23.272727-23.272727v-23.272728h23.272728v23.272728h-23.272728z m162.909091 93.090909h209.454546v-209.454546h-209.454546v209.454546z m23.272728-23.272728v-162.90909h162.90909v162.90909h-162.90909zM279.272727 360.72727299999997h209.454546v-209.454546H279.272727v209.454546z m23.272728-23.272728v-162.90909h162.90909v162.90909h-162.90909z m69.818181-69.818181h23.272728v-23.272728h-23.272728v23.272728z m256 256h23.272728v-23.272728h-23.272728v23.272728z m93.090909-162.909091h23.272728v-209.454546h-23.272728v209.454546z m-46.545454 0h23.272727v-209.454546h-23.272727v209.454546z m-46.545455-139.636364h23.272728v-69.818182h-23.272728v69.818182z m-46.545454 0h23.272727v-69.818182h-23.272727v69.818182z m-46.545455 0h23.272728v-69.818182h-23.272728v69.818182z m0 139.636364h116.363637v-116.363637h-116.363637v116.363637z m23.272728-23.272728v-69.818181h69.818181v69.818181h-69.818181z m23.272727-23.272727h23.272727v-23.272727h-23.272727v23.272727z"  horiz-adv-x="1024" />

    


  </font>
</defs>
</svg>
